# File created by Blade
# Date/Time:  Tue Apr 07 20:40:51 2015
#---------------------------------------------------------
:version 1.10
:name HOM
:units
  mass 1.0
  length 1.000000
  angle deg
:documentation
     Acclaim Skeleton File
:root
   axis xyz
   order TX TY TZ RX RY RZ
   position 0.000000 0.000000 0.000000
   orientation 0 0 0
:bonedata
   begin
      id 1
      name Spine_dum
      direction 0.000000 1.000000 0.000000
      length 4.885285
      axis 0.0 0.0 0.0 xyz
   end
   begin
      id 2
      name LeftUpLeg_dum
      direction 1.000000 0.000000 0.000000
      length 2.672193
      axis 0.0 0.0 0.0 xyz
   end
   begin
      id 3
      name RightUpLeg_dum
      direction -1.000000 0.000000 0.000000
      length 2.672193
      axis 0.0 0.0 0.0 xyz
   end
   begin
      id 4
      name Spine
      direction 0.000000 1.000000 0.000000
      length 0.000000
      axis 0.0 0.0 0.0 xyz
      dof rx ry rz
   end
   begin
      id 5
      name Spine_dum1
      direction 0.000000 1.000000 0.000000
      length 16.494159
      axis 0.0 0.0 0.0 xyz
   end
   begin
      id 6
      name Spine_dum2
      direction 0.000000 1.000000 0.000000
      length 10.663448
      axis 0.0 0.0 0.0 xyz
   end
   begin
      id 7
      name Spine_dum3
      direction 0.000000 1.000000 0.000000
      length 10.663448
      axis 0.0 0.0 0.0 xyz
   end
   begin
      id 8
      name Head
      direction 0.000000 1.000000 0.000000
      length 4.527550
      axis 0.0 0.0 0.0 xyz
      dof rx ry rz
   end
   begin
      id 9
      name LeftShoulder
      direction 1.000000 0.000000 0.000000
      length 7.531907
      axis 0.0 0.0 -90.0 xyz
      dof rx ry rz
   end
   begin
      id 10
      name LeftArm
      direction 1.000000 0.000000 0.000000
      length 10.229199
      axis 0.0 0.0 -90.0 xyz
      dof rx ry rz
   end
   begin
      id 11
      name LeftForeArm
      direction 1.000000 0.000000 0.000000
      length 8.673495
      axis 0.0 0.0 -90.0 xyz
      dof ry rz rx
   end
   begin
      id 12
      name LeftHand
      direction 0.000000 0.000000 0.000000
      length 0.000000
      axis 0.0 0.0 -90.0 xyz
      dof rx ry rz
   end
   begin
      id 13
      name LeftHand_dum1
      direction 0.000000 0.000000 0.000000
      length 0.000000
      axis 0.0 0.0 -90.0 xyz
   end
   begin
      id 14
      name LeftHand_dum2
      direction 1.000000 0.000000 0.000000
      length 3.937000
      axis 0.0 0.0 -90.0 xyz
   end
   begin
      id 15
      name LeftHandThumb1
      direction 0.000000 0.000000 1.000000
      length 3.937000
      axis 0.0 0.0 -90.0 xyz
      dof rx rz ry
   end
   begin
      id 16
      name RightShoulder
      direction -1.000000 0.000000 0.000000
      length 7.531907
      axis 0.0 0.0 90.0 xyz
      dof rx ry rz
   end
   begin
      id 17
      name RightArm
      direction -1.000000 0.000000 0.000000
      length 10.229199
      axis 0.0 0.0 90.0 xyz
      dof rx ry rz
   end
   begin
      id 18
      name RightForeArm
      direction -1.000000 0.000000 0.000000
      length 8.673495
      axis 0.0 0.0 90.0 xyz
      dof ry rz rx
   end
   begin
      id 19
      name RightHand
      direction 0.000000 0.000000 0.000000
      length 0.000000
      axis 0.0 0.0 90.0 xyz
      dof rx ry rz
   end
   begin
      id 20
      name RightHand_dum1
      direction 0.000000 0.000000 0.000000
      length 0.000000
      axis 0.0 0.0 90.0 xyz
   end
   begin
      id 21
      name RightHand_dum2
      direction -1.000000 0.000000 0.000000
      length 3.937000
      axis 0.0 0.0 90.0 xyz
   end
   begin
      id 22
      name RightHandThumb1
      direction 0.000000 0.000000 1.000000
      length 3.937000
      axis 0.0 0.0 90.0 xyz
      dof rx rz ry
   end
   begin
      id 23
      name LeftUpLeg
      direction 0.000000 -1.000000 0.000000
      length 16.263388
      axis 0.0 0.0 0.0 xyz
      dof rx ry rz
   end
   begin
      id 24
      name LeftLeg
      direction 0.000000 -1.000000 0.000000
      length 14.328163
      axis 0.0 0.0 0.0 xyz
      dof rx ry rz
   end
   begin
      id 25
      name LeftFoot
      direction 0.000000 -0.258819 0.965926
      length 5.031290
      axis 15.0 0.0 0.0 xyz
      dof rx ry rz
   end
   begin
      id 26
      name LeftToeBase
      direction 0.000000 0.000000 1.000000
      length 2.952750
      axis 0.0 0.0 0.0 xyz
      dof rx ry rz
   end
   begin
      id 27
      name RightUpLeg
      direction 0.000000 -1.000000 0.000000
      length 16.263388
      axis 0.0 0.0 0.0 xyz
      dof rx ry rz
   end
   begin
      id 28
      name RightLeg
      direction 0.000000 -1.000000 0.000000
      length 14.328163
      axis 0.0 0.0 0.0 xyz
      dof rx ry rz
   end
   begin
      id 29
      name RightFoot
      direction 0.000000 -0.258819 0.965926
      length 5.031290
      axis 15.0 0.0 0.0 xyz
      dof rx ry rz
   end
   begin
      id 30
      name RightToeBase
      direction 0.000000 0.000000 1.000000
      length 2.952750
      axis 0.0 0.0 0.0 xyz
      dof rx ry rz
   end
:hierarchy
   begin
      root Spine_dum LeftUpLeg_dum RightUpLeg_dum
      Spine_dum Spine
      LeftUpLeg_dum LeftUpLeg
      RightUpLeg_dum RightUpLeg
      Spine Spine_dum1 Spine_dum2 Spine_dum3
      Spine_dum1 Head
      Spine_dum2 LeftShoulder
      Spine_dum3 RightShoulder
      LeftShoulder LeftArm
      LeftArm LeftForeArm
      LeftForeArm LeftHand
      LeftHand LeftHand_dum1 LeftHand_dum2
      LeftHand_dum1 LeftHandThumb1
      RightShoulder RightArm
      RightArm RightForeArm
      RightForeArm RightHand
      RightHand RightHand_dum1 RightHand_dum2
      RightHand_dum1 RightHandThumb1
      LeftUpLeg LeftLeg
      LeftLeg LeftFoot
      LeftFoot LeftToeBase
      RightUpLeg RightLeg
      RightLeg RightFoot
      RightFoot RightToeBase
   end

# File created by Blade
# Date/Time:  Tue Apr 07 20:41:02 2015
# Frame Rate: 120.000 fps
#------------------------------------------------------
:FULLY-SPECIFIED
:DEGREES
342
root 3.095428 32.648033 -1.224695 7.482645 -8.335845 -3.158612
Spine 1.248714 2.088045 -2.769885
Head 1.248354 -1.822932 7.778394
LeftShoulder -17.623438 42.517846 12.846401
LeftArm 55.834227 -9.709669 -90.704316
LeftForeArm 11.668498 -0.000000 34.451518
LeftHand 4.039729 0.000000 12.064709
LeftHandThumb1 -26.253704 0.000000 33.147579
RightShoulder 1.871549 5.124011 -15.182606
RightArm 24.547886 0.739768 90.262287
RightForeArm 4.714684 -0.000000 27.898549
RightHand 7.594196 -0.000000 -5.539775
RightHandThumb1 -24.326973 -0.000000 -32.862282
LeftUpLeg -10.248214 0.370105 -2.616685
LeftLeg 6.415023 -0.000000 -0.000000
LeftFoot -11.207842 20.512495 -8.102456
LeftToeBase -4.050709 -0.000000 0.000000
RightUpLeg -44.076589 -14.449364 0.961319
RightLeg 59.561721 -0.000000 -0.000000
RightFoot 19.570914 9.546018 15.348192
RightToeBase 4.308891 -0.000000 -0.000000
343
root 3.119142 32.649622 -1.278093 7.435609 -8.519127 -3.382108
Spine 1.619767 2.410234 -2.533314
Head 0.959347 -1.940133 7.771497
LeftShoulder -17.382884 42.445025 12.928383
LeftArm 55.670011 -8.861374 -90.614796
LeftForeArm 11.782610 -0.000000 34.514121
LeftHand 4.126140 -0.000000 12.108462
LeftHandThumb1 -26.253704 0.000000 33.147579
RightShoulder 2.155926 5.106854 -14.966833
RightArm 24.789311 0.324726 90.636985
RightForeArm 5.059090 -0.000000 27.666936
RightHand 7.765807 0.000000 -5.238413
RightHandThumb1 -24.326973 -0.000000 -32.862282
LeftUpLeg -10.402312 0.398441 -2.453406
LeftLeg 6.688145 -0.000000 -0.000000
LeftFoot -11.224951 20.808157 -7.859448
LeftToeBase -4.092754 -0.000000 0.000000
RightUpLeg -45.211989 -14.817909 1.235360
RightLeg 60.726924 -0.000000 -0.000000
RightFoot 20.939680 8.265500 16.356940
RightToeBase 5.677519 -0.000000 -0.000000
344
root 3.142242 32.651666 -1.325997 7.369469 -8.672366 -3.607916
Spine 2.000061 2.683167 -2.291821
Head 0.691398 -2.000034 7.795216
LeftShoulder -17.196429 42.399461 13.007418
LeftArm 55.532899 -7.987166 -90.498678
LeftForeArm 11.759558 -0.000000 34.528550
LeftHand 4.193301 0.000000 12.279800
LeftHandThumb1 -26.253704 0.000000 33.147579
RightShoulder 2.480696 5.159851 -14.750380
RightArm 24.957168 -0.090876 90.973907
RightForeArm 5.491454 0.000000 27.376255
RightHand 7.869893 -0.000000 -4.382525
RightHandThumb1 -24.326973 -0.000000 -32.862282
LeftUpLeg -10.544401 0.453526 -2.284807
LeftLeg 6.993189 -0.000000 -0.000000
LeftFoot -11.273555 21.012093 -7.686821
LeftToeBase -4.223160 -0.000000 0.000000
RightUpLeg -46.323142 -15.239982 1.545857
RightLeg 61.933350 -0.000000 -0.000000
RightFoot 21.657895 7.231343 16.315197
RightToeBase 5.939472 -0.000000 -0.000000
345
root 3.161893 32.655544 -1.375746 7.307419 -8.821526 -3.872414
Spine 2.403899 2.981610 -2.006964
Head 0.379176 -2.042757 7.824688
LeftShoulder -17.056992 42.390147 13.070628
LeftArm 55.529661 -7.129128 -90.514345
LeftForeArm 11.807634 -0.000000 34.452909
LeftHand 4.293359 -0.000000 12.477611
LeftHandThumb1 -26.253704 0.000000 33.147579
RightShoulder 2.728574 5.232658 -14.517089
RightArm 25.148658 -0.649095 91.194274
RightForeArm 5.799568 0.000000 27.045389
RightHand 7.938765 -0.000000 -4.270294
RightHandThumb1 -24.326973 -0.000000 -32.862282
LeftUpLeg -10.688034 0.472866 -2.063319
LeftLeg 7.299628 -0.000000 -0.000000
LeftFoot -11.248719 21.249474 -7.433181
LeftToeBase -4.391991 -0.000000 0.000000
RightUpLeg -47.406856 -15.591812 1.892158
RightLeg 63.114250 -0.000000 -0.000000
RightFoot 21.918322 6.284160 16.121330
RightToeBase 5.865219 -0.000000 -0.000000
346
root 3.176381 32.658233 -1.424657 7.259859 -8.961416 -4.166764
Spine 2.793813 3.257435 -1.699951
Head 0.079773 -2.104482 7.862022
LeftShoulder -16.958517 42.376954 13.151024
LeftArm 55.550351 -6.310365 -90.605041
LeftForeArm 11.797528 -0.000000 34.310305
LeftHand 4.483403 -0.000000 12.585084
LeftHandThumb1 -26.253704 0.000000 33.147579
RightShoulder 2.990132 5.350480 -14.314443
RightArm 25.312209 -1.244094 91.398928
RightForeArm 6.119588 0.000000 26.630206
RightHand 7.994040 0.000000 -4.235571
RightHandThumb1 -24.326973 -0.000000 -32.862282
LeftUpLeg -10.847308 0.509414 -1.818446
LeftLeg 7.619935 -0.000000 -0.000000
LeftFoot -11.252833 21.556935 -7.102577
LeftToeBase -4.465224 -0.000000 0.000000
RightUpLeg -48.494895 -15.916883 2.275081
RightLeg 64.320295 -0.000000 -0.000000
RightFoot 21.629609 5.425279 15.588275
RightToeBase 6.723924 -0.000000 -0.000000
347
root 3.196877 32.661635 -1.472966 7.194920 -9.083939 -4.414381
Spine 3.212168 3.548271 -1.418261
Head -0.252734 -2.179369 7.888191
LeftShoulder -16.785930 42.284218 13.301161
LeftArm 55.427869 -5.444141 -90.521055
LeftForeArm 11.572887 -0.000000 34.253493
LeftHand 4.544198 -0.000000 12.827616
LeftHandThumb1 -26.253704 0.000000 33.147579
RightShoulder 3.177343 5.436692 -14.128774
RightArm 25.516943 -1.984544 91.485365
RightForeArm 6.588530 -0.000000 26.191777
RightHand 7.925329 -0.000000 -4.058332
RightHandThumb1 -24.326973 -0.000000 -32.862282
LeftUpLeg -10.998223 0.482912 -1.602353
LeftLeg 7.950847 -0.000000 -0.000000
LeftFoot -11.338458 21.780717 -7.055214
LeftToeBase -4.107471 -0.000000 0.000000
RightUpLeg -49.563561 -16.238499 2.581161
RightLeg 65.520919 -0.000000 -0.000000
RightFoot 21.150112 4.469694 15.188224
RightToeBase 7.868872 -0.000000 -0.000000
348
root 3.214736 32.665504 -1.519195 7.137907 -9.189408 -4.650326
Spine 3.618016 3.831204 -1.156042
Head -0.586087 -2.266014 7.938001
LeftShoulder -16.641943 42.216777 13.444926
LeftArm 55.318040 -4.590720 -90.395840
LeftForeArm 11.235681 -0.000000 34.253409
LeftHand 4.635305 -0.000000 12.939425
LeftHandThumb1 -26.253704 0.000000 33.147579
RightShoulder 3.349701 5.570730 -13.940313
RightArm 25.642071 -2.846419 91.462776
RightForeArm 7.248843 0.000000 25.778988
RightHand 7.868407 0.000000 -3.947488
RightHandThumb1 -24.326973 -0.000000 -32.862282
LeftUpLeg -11.147323 0.439113 -1.391395
LeftLeg 8.268716 -0.000000 -0.000000
LeftFoot -11.359730 21.979638 -6.955591
LeftToeBase -4.145105 -0.000000 0.000000
RightUpLeg -50.634670 -16.552028 2.887412
RightLeg 66.728589 -0.000000 -0.000000
RightFoot 20.610368 3.693670 14.896969
RightToeBase 7.859160 -0.000000 -0.000000
349
root 3.232825 32.670693 -1.567249 7.072523 -9.268624 -4.882686
Spine 4.058499 4.113260 -0.894975
Head -0.966911 -2.374912 8.021337
LeftShoulder -16.499851 42.124776 13.594339
LeftArm 55.284426 -3.809529 -90.397743
LeftForeArm 10.979449 -0.000000 34.142499
LeftHand 4.597878 -0.000000 12.945844
LeftHandThumb1 -26.253704 0.000000 33.147579
RightShoulder 3.472024 5.666535 -13.744590
RightArm 25.848598 -3.441935 91.598759
RightForeArm 7.613326 -0.000000 25.265599
RightHand 7.859913 -0.000000 -3.753393
RightHandThumb1 -24.326973 -0.000000 -32.862282
LeftUpLeg -11.307967 0.399206 -1.164938
LeftLeg 8.636215 -0.000000 -0.000000
LeftFoot -11.348533 22.024418 -6.893908
LeftToeBase -4.367662 -0.000000 0.000000
RightUpLeg -51.704425 -16.872481 3.176318
RightLeg 67.945186 -0.000000 -0.000000
RightFoot 20.102265 3.139264 14.575423
RightToeBase 7.866980 -0.000000 -0.000000
350
root 3.247145 32.674781 -1.613077 6.987891 -9.322767 -5.161271
Spine 4.527715 4.382511 -0.560820
Head -1.344368 -2.485099 8.063522
LeftShoulder -16.371340 42.046109 13.722834
LeftArm 55.290118 -3.061090 -90.392224
LeftForeArm 10.731557 -0.000000 33.995753
LeftHand 4.703138 -0.000000 12.828148
LeftHandThumb1 -26.253704 0.000000 33.147579
RightShoulder 3.600901 5.756490 -13.580945
RightArm 26.036259 -3.952254 91.767014
RightForeArm 8.174941 0.000000 24.727392
RightHand 7.822955 -0.000000 -3.467130
RightHandThumb1 -24.326973 -0.000000 -32.862282
LeftUpLeg -11.405214 0.262933 -0.902707
LeftLeg 8.919171 -0.000000 -0.000000
LeftFoot -11.345534 22.347718 -6.706782
LeftToeBase -4.409940 -0.000000 0.000000
RightUpLeg -52.746442 -17.202643 3.516720
RightLeg 69.150932 -0.000000 -0.000000
RightFoot 19.710635 2.697747 14.243218
RightToeBase 7.817256 -0.000000 -0.000000
351
root 3.260357 32.679455 -1.659304 6.913529 -9.373665 -5.456311
Spine 4.999002 4.626575 -0.200650
Head -1.732491 -2.568118 8.069710
LeftShoulder -16.264062 41.943423 13.821416
LeftArm 55.269422 -2.337002 -90.318003
LeftForeArm 10.456284 0.000000 33.851612
LeftHand 4.752991 -0.000000 12.835737
LeftHandThumb1 -26.253704 0.000000 33.147579
RightShoulder 3.759569 5.847853 -13.427715
RightArm 26.207893 -4.447432 91.910894
RightForeArm 8.757947 -0.000000 24.198283
RightHand 7.835419 -0.000000 -3.210262
RightHandThumb1 -24.326973 -0.000000 -32.862282
LeftUpLeg -11.530675 0.256779 -0.636728
LeftLeg 9.247056 -0.000000 -0.000000
LeftFoot -11.323704 22.518570 -6.441386
LeftToeBase -4.471137 -0.000000 0.000000
RightUpLeg -53.805097 -17.517482 3.867406
RightLeg 70.350997 -0.000000 -0.000000
RightFoot 19.511123 2.387244 13.997672
RightToeBase 8.224443 -0.000000 -0.000000
